#!OML:ASF H:\BreakDance\Project 1\Capture day 1\Session 1\Male.ASF
:FULLY-SPECIFIED
:DEGREES
149
root 12.7654 15.9996 1.41173 -145.09 -89.2681 143.913
lowerback -6.89986 0.896491 0.647465
upperback 3.83301 1.23849 -1.81169
thorax 7.96729 0.683195 -2.10609
lowerneck -5.43182 -1.1437 -1.13757
upperneck 8.5631 -1.83986 3.78831
head 3.81284 -0.806771 1.3665
rclavicle -8.94531e-016 -2.26615e-014
rhumerus -31.9999 4.33267 -88.6789
rradius 52.4806
rwrist 13.1562
rhand -33.5829 -28.3709
rfingers 7.12502
rthumb -6.77696 -58.2425
lclavicle -8.94531e-016 -2.26615e-014
lhumerus -29.0634 -7.58237 83.285
lradius 55.1034
lwrist -9.8868
lhand -26.8055 -23.437
lfingers 7.12502
lthumb -0.232265 6.54264
rfemur -12.613 3.95319 13.3983
rtibia 43.9078
rfoot -26.5238 -20.1673
rtoes -7.89434
lfemur -15.2161 2.30224 -11.2297
ltibia 42.4547
lfoot -31.1747 18.3632
ltoes -26.5164
150
root 12.7661 15.9995 1.41153 -144.93 -89.2744 143.754
lowerback -6.8851 0.897589 0.648544
upperback 3.82052 1.2405 -1.8232
thorax 7.94566 0.684388 -2.11871
lowerneck -5.40159 -1.15121 -1.09984
upperneck 8.56082 -1.85341 3.7844
head 3.80581 -0.812912 1.3577
rclavicle 3.60297e-015 7.55382e-015
rhumerus -32.0387 4.31267 -88.7039
rradius 52.5227
rwrist 13.0994
rhand -33.5948 -28.3754
rfingers 7.12502
rthumb -6.78843 -58.2466
lclavicle 3.60297e-015 7.55382e-015
lhumerus -29.0655 -7.59558 83.2711
lradius 55.0789
lwrist -9.93901
lhand -26.803 -23.4666
lfingers 7.12502
lthumb -0.229851 6.51298
rfemur -12.6118 3.98909 13.4099
rtibia 43.9083
rfoot -26.5216 -20.2104
rtoes -7.97935
lfemur -15.2174 2.33745 -11.2206
ltibia 42.4559
lfoot -31.1743 18.2817
ltoes -26.3653
151
root 12.7674 15.9993 1.41127 -144.892 -89.2868 143.716
lowerback -6.87013 0.869071 0.614006
upperback 3.82884 1.20384 -1.79509
thorax 7.94267 0.663788 -2.07473
lowerneck -5.44324 -1.13627 -1.13021
upperneck 8.56723 -1.82932 3.77496
head 3.81588 -0.801697 1.36126
rclavicle -4.17448e-015 5.96354e-015
rhumerus -32.0187 4.40291 -88.6944
rradius 52.5564
rwrist 13.0383
rhand -33.6067 -28.3314
rfingers 7.12502
rthumb -6.79992 -58.2022
lclavicle -4.17448e-015 5.96354e-015
lhumerus -29.0382 -7.49578 83.2817
lradius 55.053
lwrist -10.0041
lhand -26.808 -23.4792
lfingers 7.12502
lthumb -0.234614 6.50043
rfemur -12.6119 4.02509 13.4286
rtibia 43.9076
rfoot -26.5011 -20.279
rtoes -8.1386
lfemur -15.2266 2.37269 -11.2058
ltibia 42.4592
lfoot -31.1603 18.216
ltoes -26.2823
152
root 12.7689 15.9991 1.41107 -144.79 -89.2992 143.619
lowerback -6.86155 0.842868 0.580918
upperback 3.84169 1.17025 -1.76858
thorax 7.94856 0.644871 -2.03278
lowerneck -5.48146 -1.12198 -1.15354
upperneck 8.55691 -1.80587 3.76438
head 3.81924 -0.790724 1.36303
rclavicle -4.24902e-015 1.98785e-015
rhumerus -31.9875 4.4811 -88.6805
rradius 52.5871
rwrist 13.0098
rhand -33.6235 -28.2449
rfingers 7.12502
rthumb -6.81611 -58.1151
lclavicle -4.24902e-015 1.98785e-015
lhumerus -28.9947 -7.40108 83.2912
lradius 55.0203
lwrist -10.0609
lhand -26.8166 -23.4851
lfingers 7.12502
lthumb -0.242944 6.49447
rfemur -12.6163 4.0469 13.4439
rtibia 43.9054
rfoot -26.4679 -20.3467
rtoes -8.32832
lfemur -15.2426 2.40096 -11.1933
ltibia 42.4634
lfoot -31.1395 18.1818
ltoes -26.297
153
root 12.7705 15.9991 1.41096 -144.865 -89.308 143.702
lowerback -6.86336 0.806884 0.534124
upperback 3.86291 1.12394 -1.72569
thorax 7.96837 0.618619 -1.96748
lowerneck -5.53607 -1.09874 -1.20375
upperneck 8.54033 -1.76655 3.74684
head 3.82344 -0.772786 1.36807
rclavicle -5.01931e-015 6.36111e-015
rhumerus -31.9335 4.5995 -88.6483
rradius 52.6103
rwrist 13.0134
rhand -33.6588 -28.1336
rfingers 7.12502
rthumb -6.85017 -58.0027
lclavicle -5.01931e-015 6.36111e-015
lhumerus -28.9448 -7.25528 83.3143
lradius 54.9924
lwrist -10.1136
lhand -26.8256 -23.4916
lfingers 7.12502
lthumb -0.251638 6.48796
rfemur -12.6261 4.05918 13.4553
rtibia 43.9013
rfoot -26.4445 -20.3864
rtoes -8.42639
lfemur -15.2647 2.41901 -11.1834
ltibia 42.4678
lfoot -31.1163 18.176
ltoes -26.3988
154
root 12.7719 15.9993 1.41094 -145.39 -89.3129 144.242
lowerback -6.87176 0.784315 0.50561
upperback 3.87896 1.09459 -1.69458
thorax 7.98797 0.601969 -1.92254
lowerneck -5.56703 -1.08317 -1.23375
upperneck 8.51611 -1.73955 3.73099
head 3.82036 -0.760605 1.36937
rclavicle -3.85145e-015 -3.57812e-015
rhumerus -31.8938 4.67353 -88.6204
rradius 52.6324
rwrist 13.0608
rhand -33.7175 -28.0311
rfingers 7.12502
rthumb -6.90683 -57.8984
lclavicle -3.85145e-015 -3.57812e-015
lhumerus -28.9132 -7.15106 83.3329
lradius 54.9817
lwrist -10.1395
lhand -26.8249 -23.4965
lfingers 7.12502
lthumb -0.250924 6.48308
rfemur -12.641 4.06891 13.4657
rtibia 43.8949
rfoot -26.4378 -20.3941
rtoes -8.40142
lfemur -15.2914 2.42893 -11.1733
ltibia 42.4726
lfoot -31.0957 18.1854
ltoes -26.53
155
root 12.773 15.9996 1.41104 -146.798 -89.3138 145.666
lowerback -6.88515 0.763962 0.487996
upperback 3.89324 1.06695 -1.66036
thorax 8.00887 0.586678 -1.88019
lowerneck -5.59304 -1.06821 -1.2711
upperneck 8.49107 -1.71256 3.71403
head 3.81611 -0.748762 1.3716
rclavicle -2.03754e-015 -8.34896e-015
rhumerus -31.8573 4.75087 -88.5874
rradius 52.6528
rwrist 13.1404
rhand -33.7874 -27.9499
rfingers 7.12502
rthumb -6.97435 -57.815
lclavicle -2.03754e-015 -8.34896e-015
lhumerus -28.8892 -7.04454 83.3544
lradius 54.9798
lwrist -10.1448
lhand -26.8091 -23.49
lfingers 7.12502
lthumb -0.235713 6.48959
rfemur -12.6597 4.08038 13.4803
rtibia 43.886
rfoot -26.4478 -20.3735
rtoes -8.28544
lfemur -15.3202 2.43597 -11.1583
ltibia 42.4787
lfoot -31.0815 18.2129
ltoes -26.6602
156
root 12.7742 16.0001 1.4112 -149.294 -89.3143 148.183
lowerback -6.89278 0.765132 0.511494
upperback 3.89469 1.06539 -1.64767
thorax 8.01501 0.586914 -1.88016
lowerneck -5.5868 -1.07105 -1.2813
upperneck 8.4624 -1.71385 3.71147
head 3.8049 -0.749955 1.37228
rclavicle 7.42958e-015 -2.22639e-014
rhumerus -31.8503 4.75884 -88.5705
rradius 52.6764
rwrist 13.2451
rhand -33.8534 -27.8801
rfingers 7.12502
rthumb -7.03808 -57.7431
lclavicle 7.42958e-015 -2.22639e-014
lhumerus -28.8788 -7.01338 83.3601
lradius 54.9829
lwrist -10.1315
lhand -26.7861 -23.4649
lfingers 7.12502
lthumb -0.213485 6.51474
rfemur -12.6821 4.0967 13.5059
rtibia 43.8754
rfoot -26.4697 -20.3373
rtoes -8.11836
lfemur -15.3514 2.44704 -11.1318
ltibia 42.4862
lfoot -31.0706 18.2518
ltoes -26.7941
157
root 12.7754 16.0006 1.41139 -152.021 -89.3142 150.933
lowerback -6.88834 0.782798 0.566665
upperback 3.87934 1.08413 -1.65665
thorax 7.99801 0.599277 -1.91813
lowerneck -5.54755 -1.09094 -1.28002
upperneck 8.43629 -1.74206 3.73183
head 3.78914 -0.763663 1.37722
rclavicle 5.26779e-015 -7.15625e-015
rhumerus -31.8759 4.71319 -88.5699
rradius 52.7013
rwrist 13.3527
rhand -33.9021 -27.8037
rfingers 7.12502
rthumb -7.08503 -57.6651
lclavicle 5.26779e-015 -7.15625e-015
lhumerus -28.893 -7.05176 83.3514
lradius 54.9933
lwrist -10.1063
lhand -26.7617 -23.4372
lfingers 7.12502
lthumb -0.189897 6.54248
rfemur -12.7092 4.11035 13.5334
rtibia 43.865
rfoot -26.4868 -20.3039
rtoes -7.9786
lfemur -15.3845 2.46076 -11.1024
ltibia 42.4943
lfoot -31.0641 18.2721
ltoes -26.8614
158
root 12.7768 16.0012 1.41162 -153.708 -89.3133 152.64
lowerback -6.87324 0.813596 0.633907
upperback 3.85275 1.12079 -1.68999
thorax 7.96438 0.621603 -1.98625
lowerneck -5.47988 -1.1272 -1.2574
upperneck 8.41075 -1.79652 3.77032
head 3.7688 -0.789409 1.38308
rclavicle 1.54058e-015 -2.38542e-015
rhumerus -31.9228 4.61957 -88.5867
rradius 52.7223
rwrist 13.4467
rhand -33.936 -27.7056
rfingers 7.12502
rthumb -7.11777 -57.5659
lclavicle 1.54058e-015 -2.38542e-015
lhumerus -28.9226 -7.16123 83.3261
lradius 55.008
lwrist -10.0748
lhand -26.7382 -23.4134
lfingers 7.12502
lthumb -0.167217 6.56623
rfemur -12.7349 4.11546 13.5481
rtibia 43.8572
rfoot -26.4884 -20.2888
rtoes -7.93244
lfemur -15.414 2.4683 -11.0859
ltibia 42.501
lfoot -31.0595 18.2683
ltoes -26.8479
159
root 12.7783 16.0015 1.41174 -153.899 -89.3123 152.847
lowerback -6.84986 0.852074 0.695555
upperback 3.82441 1.16947 -1.74235
thorax 7.92508 0.64992 -2.06978
lowerneck -5.40648 -1.17328 -1.21025
upperneck 8.3883 -1.86759 3.81785
head 3.74874 -0.822402 1.38679
rclavicle -5.93869e-015 0
rhumerus -31.9706 4.49477 -88.6178
rradius 52.7348
rwrist 13.5128
rhand -33.9614 -27.599
rfingers 7.12502
rthumb -7.14231 -57.4584
lclavicle -5.93869e-015 0
lhumerus -28.9549 -7.32172 83.2875
lradius 55.025
lwrist -10.0468
lhand -26.7236 -23.3893
lfingers 7.12502
lthumb -0.153131 6.59038
rfemur -12.7554 4.11733 13.5472
rtibia 43.8537
rfoot -26.4756 -20.2984
rtoes -7.97501
lfemur -15.437 2.46703 -11.0872
ltibia 42.5044
lfoot -31.0503 18.2676
ltoes -26.8436
160
root 12.7799 16.0016 1.41166 -152.634 -89.3082 151.595
lowerback -6.82089 0.889494 0.734986
upperback 3.79327 1.21927 -1.80043
thorax 7.87941 0.677627 -2.14678
lowerneck -5.32345 -1.21809 -1.14574
upperneck 8.36941 -1.93794 3.8574
head 3.72761 -0.855003 1.38481
rclavicle 2.49226e-014 -2.90226e-014
rhumerus -32.0249 4.37099 -88.6552
rradius 52.7461
rwrist 13.5451
rhand -33.9832 -27.4972
rfingers 7.12502
rthumb -7.16337 -57.356
lclavicle 2.49226e-014 -2.90226e-014
lhumerus -28.9983 -7.48935 83.2488
lradius 55.0452
lwrist -10.0308
lhand -26.72 -23.3731
lfingers 7.12502
lthumb -0.149611 6.6066
rfemur -12.7744 4.11692 13.5288
rtibia 43.8547
rfoot -26.4656 -20.3072
rtoes -8.00717
lfemur -15.4568 2.45883 -11.1069
ltibia 42.5037
lfoot -31.0362 18.2888
ltoes -26.8951
161
root 12.7817 16.0017 1.41141 -150.589 -89.303 149.56
lowerback -6.79522 0.907351 0.735207
upperback 3.77919 1.24529 -1.83621
thorax 7.8515 0.691081 -2.1814
lowerneck -5.3031 -1.24589 -1.09735
upperneck 8.37288 -1.98149 3.86939
head 3.72558 -0.874937 1.37801
rclavicle 2.36057e-015 -8.34896e-015
rhumerus -32.0438 4.31866 -88.6769
rradius 52.7584
rwrist 13.5385
rhand -34.0094 -27.4089
rfingers 7.12502
rthumb -7.18861 -57.2668
lclavicle 2.36057e-015 -8.34896e-015
lhumerus -29.0162 -7.57767 83.2263
lradius 55.0623
lwrist -10.0406
lhand -26.7272 -23.3748
lfingers 7.12502
lthumb -0.156617 6.60484
rfemur -12.7915 4.11887 13.5025
rtibia 43.858
rfoot -26.4801 -20.2922
rtoes -7.91143
lfemur -15.4775 2.44903 -11.135
ltibia 42.5006
lfoot -31.0165 18.3241
ltoes -26.999
162
root 12.7836 16.0019 1.41097 -148.885 -89.3023 147.866
lowerback -6.77175 0.932409 0.743132
upperback 3.76672 1.28048 -1.87695
thorax 7.82741 0.709596 -2.22436
lowerneck -5.2881 -1.27475 -1.01434
upperneck 8.38743 -2.02852 3.86483
head 3.7277 -0.896075 1.35937
rclavicle 3.47873e-015 1.94809e-014
rhumerus -32.0721 4.24003 -88.7045
rradius 52.783
rwrist 13.5121
rhand -34.0281 -27.3673
rfingers 7.12502
rthumb -7.2067 -57.2246
lclavicle 3.47873e-015 1.94809e-014
lhumerus -29.0263 -7.68683 83.2008
lradius 55.0743
lwrist -10.0594
lhand -26.7439 -23.4
lfingers 7.12502
lthumb -0.172772 6.57964
rfemur -12.8056 4.13535 13.4875
rtibia 43.8604
rfoot -26.5213 -20.2663
rtoes -7.67363
lfemur -15.5008 2.44356 -11.1537
ltibia 42.4979
lfoot -30.9931 18.3604
ltoes -27.1237
